<svg xmlns:dc="http://purl.org/dc/elements/1.1/" xmlns:cc="http://creativecommons.org/ns#" xmlns:rdf="http://www.w3.org/1999/02/22-rdf-syntax-ns#" xmlns:svg="http://www.w3.org/2000/svg" xmlns="http://www.w3.org/2000/svg" viewBox="0 0 14 14" fill="none"><metadata><rdf:RDF><cc:Work><dc:format>image/svg+xml</dc:format><dc:type rdf:resource="http://purl.org/dc/dcmitype/StillImage"/><dc:title>Pixel Art - Neutral</dc:title><dc:creator><cc:Agent><dc:title>Plastic Jam</dc:title></cc:Agent></dc:creator><cc:license rdf:resource="https://github.com/dicebear/dicebear/blob/main/packages/%40dicebear/pixel-art-neutral/LICENSE"/></cc:Work></rdf:RDF></metadata><mask id="avatarsRadiusMask"><rect width="14" height="14" rx="0" ry="0" x="0" y="0" fill="#fff"/></mask><g mask="url(#avatarsRadiusMask)"><rect fill="rgba(255, 219, 172, 1)" width="14" height="14" x="0" y="0"/><g transform="translate(-3 -3)"><g fill-rule="evenodd" clip-rule="evenodd"><path d="M6 7h1v1h1v1H6V7Zm6 0h1v1h1v1h-2V7Z" fill="#fff"/><path d="M6 8h1v1H6V8Zm6 0h1v1h-1V8Z" fill="#000"/></g></g><g transform="translate(-3 -3)"><g fill-rule="evenodd" clip-rule="evenodd"><path d="M7 5v1H5v1H4V6h1V5h2Zm7 0v1h-2v1h-1V6h1V5h2Z" fill="rgba(97, 28, 23, 1)"/><path d="M7 5v1H5v1H4V6h1V5h2Zm7 0v1h-2v1h-1V6h1V5h2Z" fill="#000" fill-opacity=".1"/></g></g><g transform="translate(-3 -2)"><path d="M10 12v1h1v1h1v-2h-2Z" fill="rgba(227, 93, 106, 1)"/></g><g transform="translate(-3 -3)"/></g></svg>